<svg width="100" height="100" viewBox="0 0 100 100" fill="none" xmlns="http://www.w3.org/2000/svg">
<path d="M19.5616 83.888C27.6372 91.1491 38.2848 95.6006 49.9999 95.6006C59.9162 95.6006 69.0622 92.4037 76.5486 87.0302L52.7125 55.5891C40.4037 66.7643 27.7747 77.5631 19.5616 83.888Z" fill="url(#paint0_linear_854_257)"/>
<path d="M52.7125 55.5891C40.4037 66.7627 27.7747 77.5613 19.5616 83.8864C27.6372 91.1475 38.2848 95.599 49.9999 95.599" fill="url(#paint1_linear_854_257)"/>
<path d="M12.9677 23.4559C7.59538 30.9371 4.39673 40.0843 4.39673 49.9985C4.39673 61.7143 8.85013 72.3629 16.11 80.438C22.4339 72.2175 33.2285 59.5971 44.4073 47.2842L12.9677 23.4559Z" fill="url(#paint2_linear_854_257)"/>
<path d="M44.4091 47.286L12.9677 23.4559C7.59538 30.9371 4.39673 40.0843 4.39673 49.9985" fill="url(#paint3_linear_854_257)"/>
<path d="M76.1486 14.376C76.4972 14.0245 76.7987 13.7339 77.1284 13.4056C69.5388 7.77433 60.1787 4.39771 49.9999 4.39771C39.9961 4.39771 30.7689 7.65868 23.2464 13.1213L62.9039 27.6482C63.6664 26.8668 75.4017 15.1213 76.1486 14.376Z" fill="url(#paint4_linear_854_257)"/>
<path d="M76.1486 14.376C76.4972 14.0245 76.7987 13.7339 77.1284 13.4056C69.5388 7.77433 60.1787 4.39771 49.9999 4.39771C39.9961 4.39771 30.7689 7.65868 23.2464 13.1213" fill="url(#paint5_linear_854_257)"/>
<path d="M72.3532 37.0982L86.8808 76.7474C92.3438 69.2284 95.6033 60.0033 95.6033 49.9985C95.6033 39.8202 92.2281 30.4543 86.5934 22.8667C86.2668 23.1996 85.9746 23.4964 85.6229 23.8496C84.8742 24.5949 73.1312 36.3309 72.3532 37.0982Z" fill="url(#paint6_linear_854_257)"/>
<path d="M86.8808 76.7474C92.3438 69.2284 95.6033 60.0033 95.6033 49.9985C95.6033 39.8202 92.2281 30.4543 86.5934 22.8667C86.2668 23.1996 85.9746 23.4964 85.6229 23.8496" fill="url(#paint7_linear_854_257)"/>
<path d="M16.11 80.438C15.8287 80.8052 15.499 81.2178 15.2366 81.5677L3.46696 78.5474C2.79823 78.3676 2.08407 78.5646 1.6028 79.0459L0.57143 80.0849C0.168325 80.4943 -0.04275 81.0615 0.00724139 81.6365C0.046322 82.0912 0.251049 82.5193 0.57143 82.8396C0.651178 82.921 0.738663 82.9928 0.827735 83.06L9.61114 89.2164C9.8736 89.4007 10.1722 89.4868 10.4721 89.5274C10.508 89.8212 10.5971 90.1275 10.7832 90.3883L16.9337 99.1651C17.0103 99.2619 17.0743 99.3417 17.1618 99.426C17.4759 99.7432 17.9042 99.9495 18.365 99.9931C18.9385 100.041 19.5057 99.8338 19.9119 99.426L20.9495 98.3962C21.4371 97.9102 21.6307 97.2009 21.4526 96.5322L18.4366 84.7646C18.7852 84.5006 19.196 84.1725 19.5632 83.888C18.3507 82.8006 17.2007 81.6506 16.11 80.438Z" fill="url(#paint8_linear_854_257)"/>
<path d="M23.2464 13.1213L10.4471 8.43214C9.5127 8.0961 8.46566 8.32125 7.76102 9.02744L3.86705 12.9212C3.34829 13.4431 3.07948 14.165 3.12471 14.8993C3.17312 15.5228 3.4326 16.0931 3.87002 16.5291C3.94977 16.6089 4.04043 16.6916 4.13565 16.7604L12.9677 23.4559C15.8212 19.4808 19.2947 15.9963 23.2464 13.1213Z" fill="url(#paint9_linear_854_257)"/>
<path d="M3.86705 12.9212C3.34829 13.4431 3.07948 14.165 3.12471 14.8993C3.17312 15.5228 3.4326 16.0931 3.87002 16.5291C3.94977 16.6089 4.04043 16.6916 4.13565 16.7604L12.9677 23.4559C15.821 19.4808 19.2945 15.9978 23.2462 13.1229" fill="url(#paint10_linear_854_257)"/>
<path d="M76.5487 87.0288L83.2446 95.8649C83.3118 95.9555 83.3884 96.0414 83.4727 96.1257C83.8992 96.557 84.4852 96.8273 85.0962 96.868C85.8354 96.918 86.5589 96.6492 87.0777 96.1289L90.9716 92.2335C91.6794 91.5303 91.9092 90.4851 91.567 89.5506L86.8791 76.7472C84.0024 80.7052 80.5163 84.1741 76.5487 87.0288Z" fill="url(#paint11_linear_854_257)"/>
<path d="M87.0789 96.1289L90.9729 92.2335C91.6807 91.5303 91.9104 90.4851 91.5682 89.5506L86.8803 76.7472" fill="url(#paint12_linear_854_257)"/>
<path d="M99.5973 0.400812C99.0206 -0.181992 97.7081 -0.160172 95.6204 0.671188C94.7876 0.854083 93.8374 1.31192 92.8092 2.06492C87.44 5.09618 89.1979 1.43827 77.1283 13.4074C80.7301 16.0824 83.9163 19.2668 86.5932 22.8685C98.5627 10.8012 94.9094 12.5621 97.9408 7.19173C98.6861 6.16201 99.1456 5.21202 99.3237 4.3761C100.163 2.29146 100.18 0.985204 99.5973 0.400812Z" fill="url(#paint13_linear_854_257)"/>
<path d="M77.1284 13.4056C80.7302 16.0806 83.9165 19.265 86.5934 22.8667C98.5629 10.7994 94.9094 12.5604 97.9408 7.18995C98.6861 6.16023 99.1456 5.21024 99.3237 4.37432C100.163 2.29146 100.182 0.98521 99.5987 0.400818" fill="url(#paint14_linear_854_257)"/>
<path d="M86.5934 22.8667C98.5629 10.7994 94.9094 12.5604 97.9408 7.18995C98.6861 6.16023 99.1456 5.21024 99.3237 4.37432C100.163 2.29146 100.182 0.98521 99.5987 0.400818" fill="url(#paint15_linear_854_257)"/>
<defs>
<linearGradient id="paint0_linear_854_257" x1="0" y1="0" x2="100" y2="100" gradientUnits="userSpaceOnUse">
<stop stop-color="#DBAE1F"/>
<stop offset="1" stop-color="#FF7773"/>
</linearGradient>
<linearGradient id="paint1_linear_854_257" x1="0" y1="0" x2="100" y2="100" gradientUnits="userSpaceOnUse">
<stop stop-color="#DBAE1F"/>
<stop offset="1" stop-color="#FF7773"/>
</linearGradient>
<linearGradient id="paint2_linear_854_257" x1="0" y1="0" x2="100" y2="100" gradientUnits="userSpaceOnUse">
<stop stop-color="#DBAE1F"/>
<stop offset="1" stop-color="#FF7773"/>
</linearGradient>
<linearGradient id="paint3_linear_854_257" x1="0" y1="0" x2="100" y2="100" gradientUnits="userSpaceOnUse">
<stop stop-color="#DBAE1F"/>
<stop offset="1" stop-color="#FF7773"/>
</linearGradient>
<linearGradient id="paint4_linear_854_257" x1="0" y1="0" x2="100" y2="100" gradientUnits="userSpaceOnUse">
<stop stop-color="#DBAE1F"/>
<stop offset="1" stop-color="#FF7773"/>
</linearGradient>
<linearGradient id="paint5_linear_854_257" x1="0" y1="0" x2="100" y2="100" gradientUnits="userSpaceOnUse">
<stop stop-color="#DBAE1F"/>
<stop offset="1" stop-color="#FF7773"/>
</linearGradient>
<linearGradient id="paint6_linear_854_257" x1="0" y1="0" x2="100" y2="100" gradientUnits="userSpaceOnUse">
<stop stop-color="#DBAE1F"/>
<stop offset="1" stop-color="#FF7773"/>
</linearGradient>
<linearGradient id="paint7_linear_854_257" x1="0" y1="0" x2="100" y2="100" gradientUnits="userSpaceOnUse">
<stop stop-color="#DBAE1F"/>
<stop offset="1" stop-color="#FF7773"/>
</linearGradient>
<linearGradient id="paint8_linear_854_257" x1="0" y1="0" x2="100" y2="100" gradientUnits="userSpaceOnUse">
<stop stop-color="#DBAE1F"/>
<stop offset="1" stop-color="#FF7773"/>
</linearGradient>
<linearGradient id="paint9_linear_854_257" x1="0" y1="0" x2="100" y2="100" gradientUnits="userSpaceOnUse">
<stop stop-color="#DBAE1F"/>
<stop offset="1" stop-color="#FF7773"/>
</linearGradient>
<linearGradient id="paint10_linear_854_257" x1="0" y1="0" x2="100" y2="100" gradientUnits="userSpaceOnUse">
<stop stop-color="#DBAE1F"/>
<stop offset="1" stop-color="#FF7773"/>
</linearGradient>
<linearGradient id="paint11_linear_854_257" x1="0" y1="0" x2="100" y2="100" gradientUnits="userSpaceOnUse">
<stop stop-color="#DBAE1F"/>
<stop offset="1" stop-color="#FF7773"/>
</linearGradient>
<linearGradient id="paint12_linear_854_257" x1="0" y1="0" x2="100" y2="100" gradientUnits="userSpaceOnUse">
<stop stop-color="#DBAE1F"/>
<stop offset="1" stop-color="#FF7773"/>
</linearGradient>
<linearGradient id="paint13_linear_854_257" x1="0" y1="0" x2="100" y2="100" gradientUnits="userSpaceOnUse">
<stop stop-color="#DBAE1F"/>
<stop offset="1" stop-color="#FF7773"/>
</linearGradient>
<linearGradient id="paint14_linear_854_257" x1="0" y1="0" x2="100" y2="100" gradientUnits="userSpaceOnUse">
<stop stop-color="#DBAE1F"/>
<stop offset="1" stop-color="#FF7773"/>
</linearGradient>
<linearGradient id="paint15_linear_854_257" x1="0" y1="0" x2="100" y2="100" gradientUnits="userSpaceOnUse">
<stop stop-color="#DBAE1F"/>
<stop offset="1" stop-color="#FF7773"/>
</linearGradient>
</defs>
</svg>
