<svg viewBox="0 0 95 100" fill="currentColor" stroke="currentColor" xmlns="http://www.w3.org/2000/svg">
<path d="M48.846 43.4205C45.2916 43.4205 42.4232 46.2889 42.4232 49.8379C42.4232 53.3762 45.2916 56.2554 48.846 56.2554C52.3681 56.2554 55.2527 53.3762 55.2527 49.8379C55.2527 46.2943 52.3681 43.4205 48.846 43.4205ZM91.0943 95.6029V32.2926H90.257V2.58211H88.1017V0H85.8329V2.58211H83.429V10.1448H73.2896V2.58211H70.9992V0H68.7196V2.58211H66.4562V32.2926H61.3784L48.2734 17.3671L35.19 32.2926H26.4173V30.5315H21.7555V32.2872H8.94759V30.5315H4.29115V35.0367H4.31816V95.592H0.671875V100H94.9945V95.592H91.0889L91.0943 95.6029ZM22.9223 85.4959V95.0951H12.367V85.4959C12.367 85.4959 12.1995 82.2656 13.3609 79.7861C14.4251 77.5173 17.1477 74.0979 17.6068 73.5307H17.6987C18.1578 74.0979 20.8696 77.5173 21.9446 79.7861C23.0952 82.2656 22.9223 85.4959 22.9223 85.4959ZM56.4735 84.5452V95.2733H41.4022V84.5452C41.4022 84.5452 41.1591 80.9259 42.8175 78.1493C44.3354 75.6158 48.2194 71.7967 48.873 71.1647H48.9973C49.6563 71.7967 53.5241 75.6266 55.0528 78.1493C56.7112 80.9259 56.4735 84.5452 56.4735 84.5452ZM48.846 58.6647C43.9627 58.6647 40.0031 54.7105 40.0031 49.8433C40.0031 44.96 43.9573 41.0004 48.846 41.0004C53.7186 41.0004 57.6673 44.9546 57.6673 49.8433C57.6673 54.7105 53.7186 58.6647 48.846 58.6647ZM83.0833 85.4959V95.0951H72.5172V85.4959C72.5172 85.4959 72.3443 82.2656 73.5165 79.7861C74.5807 77.5173 77.3033 74.0979 77.757 73.5307H77.8488C78.3134 74.0979 81.036 77.5173 82.1001 79.7861C83.2507 82.2656 83.0833 85.4959 83.0833 85.4959Z"/>
</svg>
