<svg viewBox="0 0 20 20" fill="currentColor" stroke="currentColor" xmlns="http://www.w3.org/2000/svg">
<path d="M3.289 0.132961C5.10546 0.132961 6.578 1.60549 6.578 3.42196C6.578 4.78241 5.75201 5.94994 4.57417 6.4504L4.38534 6.52381V14.3853C4.38534 14.9475 4.80857 15.4109 5.35382 15.4742L5.48167 15.4816H7.90128L7.4472 15.0275C7.01906 14.5994 7.01906 13.9052 7.4472 13.4771C7.84237 13.0819 8.46427 13.0515 8.89434 13.3859L8.99761 13.4771L11.3234 15.8027C11.7186 16.198 11.749 16.8198 11.4146 17.2499L11.3234 17.3531L8.99761 19.6789C8.5695 20.107 7.8753 20.107 7.4472 19.6789C7.05199 19.2836 7.02159 18.6618 7.356 18.2318L7.4472 18.1285L7.90128 17.6743H5.48167C3.73008 17.6743 2.29829 16.3051 2.19825 14.5785L2.19267 14.3853V6.52381C0.915231 6.07231 0 4.85402 0 3.42196C0 1.60549 1.47254 0.132961 3.289 0.132961ZM10.7363 0.321114C11.1644 -0.107038 11.8586 -0.107038 12.2867 0.321114C12.6819 0.71632 12.7123 1.33819 12.3779 1.76828L12.2867 1.87156L11.8326 2.32563H14.2523C16.004 2.32563 17.4357 3.69486 17.5358 5.42138L17.5413 5.61463V13.4761C18.8188 13.9277 19.734 15.1459 19.734 16.5779C19.734 18.3944 18.2615 19.8669 16.445 19.8669C14.6285 19.8669 13.156 18.3944 13.156 16.5779C13.156 15.2175 13.982 14.05 15.1598 13.5495L15.3487 13.4761V5.61463C15.3487 5.05239 14.9255 4.589 14.3802 4.52567L14.2523 4.5183H11.8326L12.2868 4.97241C12.715 5.40056 12.715 6.09472 12.2868 6.52287C11.8915 6.91807 11.2697 6.94848 10.8396 6.61407L10.7363 6.52287L8.41064 4.19719C8.01545 3.80198 7.98505 3.18011 8.31944 2.75002L8.41064 2.64673L10.7363 0.321114Z"/>
</svg>
