<svg viewBox="0 0 512 450" fill="currentColor" stroke="currentColor" xmlns="http://www.w3.org/2000/svg">
<path d="M291.789 359.688L279.727 349.5C270.883 360.031 266.524 372.406 264.383 383.625L279.883 386.563C281.68 377.125 285.289 367.375 291.789 359.688Z"/>
<path d="M333.648 335.781L324.351 323.031C320.07 326.156 314.867 328.812 308.476 330.812C303.335 332.406 298.695 334.468 294.538 336.937L302.616 350.5C305.663 348.687 309.147 347.109 313.132 345.875C321.07 343.438 327.898 339.969 333.648 335.781Z"/>
<path d="M343.242 285.438C342.836 294.735 340.211 304.657 334.351 312.907L347.242 322C355.211 310.687 358.492 297.812 359.008 286.094L343.242 285.438Z"/>
<path d="M167.398 393.656C165.085 381.468 160.179 370.937 153.945 362.031L141.023 371.078V371.094C146.148 378.407 150.023 386.782 151.898 396.594L167.398 393.656Z"/>
<path d="M116.148 329.203L108.445 342.969C116.242 347.344 124.586 353.063 131.836 360.25L142.945 349.031C134.367 340.563 124.883 334.094 116.148 329.203Z"/>
<path d="M511.805 446.844L412.555 228.25H286.289C284.586 231.25 283.039 234.094 281.242 237.156C276.383 245.469 271.883 253 267.711 259.812H337.57L337.445 259.937C338.617 261.062 340.789 265.156 341.961 270.531L357.336 267.031C356.727 264.468 355.977 262.093 355.133 259.812H392.227L464.243 418.453H265.758L278.961 416.406L278.945 416.281C278.836 415.437 278.242 410.937 278.242 404.562C278.242 403.749 278.258 402.921 278.273 402.062L262.507 401.703C262.476 402.687 262.476 403.625 262.476 404.562C262.476 411.859 263.132 417.062 263.32 418.453H168.414C168.664 415.875 168.836 413.344 168.867 410.875L153.086 410.656C153.055 413.156 152.852 415.781 152.555 418.453H47.7579L86.4769 333.156C88.7899 333.937 91.7429 335.031 95.1649 336.469L101.337 321.969C98.1809 320.625 95.3989 319.563 93.0239 318.719L119.774 259.813H158.618C154.462 253 149.962 245.469 145.087 237.157C143.29 234.094 141.743 231.251 140.04 228.251H99.4299L0.194934 446.844C-0.118066 447.547 -0.0550656 448.344 0.350934 449C0.772934 449.625 1.47593 450 2.24193 450H509.758C510.524 450 511.227 449.625 511.649 449C512.055 448.344 512.117 447.547 511.805 446.844Z"/>
<path d="M213.164 309.656C218.164 309.656 318.32 163.25 318.32 105.156C318.32 47.094 271.242 0 213.164 0C155.07 0 107.992 47.094 107.992 105.156C107.992 163.25 208.164 309.656 213.164 309.656ZM172.945 105.156C172.945 82.937 190.961 64.937 213.164 64.937C235.383 64.937 253.398 82.937 253.398 105.156C253.398 127.375 235.382 145.39 213.164 145.39C190.961 145.391 172.945 127.375 172.945 105.156Z"/>
</svg>
