<svg viewBox="0 0 100 100" fill="currentColor" stroke="currentColor" xmlns="http://www.w3.org/2000/svg">
<path d="M97.6493 44.3916L90.0474 36.7802C88.747 35.4782 87.6968 32.9244 87.6968 31.1217V20.3055C87.6968 15.8989 84.0959 12.2934 79.6948 12.2934H68.9421C67.1417 12.2934 64.591 11.2419 63.2907 9.93992L55.6888 2.32849C52.588 -0.776165 47.4868 -0.776165 44.386 2.32849L36.6841 9.93992C35.4338 11.2419 32.8832 12.2934 31.0327 12.2934H20.28C15.879 12.2934 12.2781 15.8989 12.2781 20.3055V31.0716C12.2781 32.8743 11.2278 35.4282 9.92747 36.7301L2.32558 44.3415C-0.775193 47.4461 -0.775193 52.5538 2.32558 55.6585L9.92747 63.2699C11.2278 64.5718 12.2781 67.1257 12.2781 68.9284V79.6945C12.2781 84.1011 15.879 87.7066 20.28 87.7066H31.0327C32.8332 87.7066 35.3838 88.7581 36.6841 90.0601L44.286 97.6715C47.3868 100.776 52.488 100.776 55.5888 97.6715L63.1907 90.0601C64.491 88.7581 67.0416 87.7066 68.8421 87.7066H79.5948C83.9959 87.7066 87.5968 84.1011 87.5968 79.6945V68.9284C87.5968 67.1257 88.647 64.5718 89.9473 63.2699L97.5492 55.6585C100.8 52.6039 100.8 47.4962 97.6493 44.3916ZM29.9825 35.0276C29.9825 32.2734 32.233 30.02 34.9837 30.02C37.7344 30.02 39.985 32.2734 39.985 35.0276C39.985 37.7817 37.7844 40.0351 34.9837 40.0351C32.233 40.0351 29.9825 37.7817 29.9825 35.0276ZM37.6344 67.7266C36.8842 68.4777 35.9339 68.8282 34.9837 68.8282C34.0335 68.8282 33.0832 68.4777 32.3331 67.7266C30.8827 66.2744 30.8827 63.8708 32.3331 62.4186L62.3405 32.3736C63.7908 30.9214 66.1914 30.9214 67.6418 32.3736C69.0922 33.8258 69.0922 36.2294 67.6418 37.6815L37.6344 67.7266ZM64.9911 70.0801C62.1904 70.0801 59.9399 67.8267 59.9399 65.0726C59.9399 62.3185 62.1904 60.0651 64.9411 60.0651C67.6918 60.0651 69.9424 62.3185 69.9424 65.0726C69.9424 67.8267 67.7418 70.0801 64.9911 70.0801Z"/>
</svg>
