<svg viewBox="0 0 100 100" fill="currentColor" stroke="currentColor" xmlns="http://www.w3.org/2000/svg">
<path fill-rule="evenodd" clip-rule="evenodd" d="M50 0C77.6142 0 100 22.3858 100 50C100 77.6142 77.6142 100 50 100C22.3858 100 0 77.6142 0 50C0 22.3858 22.3858 0 50 0ZM79.9214 26.9539C80.9928 23.2239 77.4868 19.7179 73.7567 20.7893L73.2471 20.9642L37.8918 35.1064L37.3641 35.354C36.5479 35.7969 35.8714 36.4584 35.4105 37.2628L35.1064 37.8918L20.9642 73.2471L20.7893 73.7567C19.7179 77.4868 23.2239 80.9928 26.9539 79.9214L27.4636 79.7465L62.8189 65.6043L63.3466 65.3567C64.1628 64.9138 64.8392 64.2523 65.3002 63.4479L65.6043 62.8189L79.7465 27.4636L79.9214 26.9539ZM50 40C55.5228 40 60 44.4772 60 50C60 55.5228 55.5228 60 50 60C44.4772 60 40 55.5228 40 50C40 44.4772 44.4772 40 50 40Z"/>
</svg>
