<svg viewBox="0 0 101 101" fill="currentColor" stroke="currentColor" xmlns="http://www.w3.org/2000/svg">
<path fill-rule="evenodd" clip-rule="evenodd" d="M50.5 0C78.3904 0 101 22.6096 101 50.5C101 78.3904 78.3904 101 50.5 101C22.6096 101 0 78.3904 0 50.5C0 22.6096 22.6096 0 50.5 0ZM80.7206 27.2235C81.8027 23.4561 78.2617 19.9151 74.4943 20.9972L73.9796 21.1739L38.2707 35.4574L37.7378 35.7075C36.9134 36.1548 36.2302 36.8229 35.7646 37.6354L35.4574 38.2707L21.1739 73.9796L20.9972 74.4943C19.9151 78.2617 23.4561 81.8027 27.2235 80.7206L27.7382 80.5439L63.4471 66.2604L63.98 66.0103C64.8044 65.563 65.4876 64.8948 65.9532 64.0823L66.2604 63.4471L80.5439 27.7382L80.7206 27.2235ZM50.5 40.4C56.0781 40.4 60.6 44.9219 60.6 50.5C60.6 56.0781 56.0781 60.6 50.5 60.6C44.9219 60.6 40.4 56.0781 40.4 50.5C40.4 44.9219 44.9219 40.4 50.5 40.4Z"/>
</svg>
