<svg viewBox="0 0 100 100" fill="currentColor" stroke="currentColor" xmlns="http://www.w3.org/2000/svg">
<path fill-rule="evenodd" clip-rule="evenodd" d="M16.8064 2.60834C20.1789 0.892536 23.8144 0 27.5001 0C31.1859 0 34.8213 0.892536 38.1938 2.60834C41.5645 4.32326 44.5925 6.81909 47.1195 9.92318C48.661 11.8166 51.339 11.8166 52.8805 9.92318C57.9895 3.64796 65.034 5.55779e-05 72.5 5.55779e-05C79.966 5.55779e-05 87.0105 3.64796 92.1195 9.92318C97.2135 16.1798 100 24.5557 100 33.1861C100 41.8167 97.2135 50.1926 92.1195 56.4488L61.1285 94.5136C55.173 101.829 44.827 101.829 38.8715 94.5136L7.88065 56.4488C5.3543 53.3462 3.3737 49.692 2.0301 45.708C0.68655 41.724 0 37.4705 0 33.1861C0 28.9017 0.68655 24.6483 2.0301 20.6644C3.3737 16.6802 5.3543 13.0261 7.88065 9.92318C10.4078 6.81909 13.4358 4.32326 16.8064 2.60834Z"/>
</svg>
