<svg viewBox="0 0 79 115" fill="currentColor" stroke="currentColor" xmlns="http://www.w3.org/2000/svg">
<path d="M75.0377 14.7836H58.0809V24.4864C58.0809 27.0287 57.1303 29.3227 55.3325 31.1224C53.5346 32.9231 51.2432 33.8752 48.7077 33.8752H29.9044C27.369 33.8752 25.0786 32.9231 23.2808 31.1236C21.4817 29.3227 20.5314 27.0287 20.5314 24.4864V14.7836H3.57433C2.6065 14.7836 1.76795 15.1375 1.06134 15.8453C0.354526 16.5556 0 17.3943 0 18.3613V111.421C0 112.389 0.353306 113.229 1.06134 113.937C1.76795 114.645 2.60528 115 3.57433 115H27.4473C27.3603 114.588 27.3068 114.165 27.3068 113.72V97.4226C27.3068 95.7976 27.8978 94.3893 29.0872 93.1965C30.274 92.0114 31.6799 91.4144 33.3059 91.4144H45.3051C46.9285 91.4144 48.3344 92.0128 49.5239 93.1965C50.7106 94.3891 51.3054 95.7974 51.3054 97.4226V113.72C51.3054 114.165 51.2532 114.589 51.165 115H75.0389C76.0058 115 76.8443 114.645 77.5519 113.937C78.2587 113.228 78.6133 112.389 78.6133 111.421V18.3613C78.6133 17.3931 78.2587 16.5543 77.5519 15.8453C76.8429 15.1375 76.0058 14.7836 75.0377 14.7836ZM69.0128 82.3831C68.5835 82.8134 68.0761 83.0274 67.4888 83.0274H63.1532C62.5659 83.0274 62.0569 82.8134 61.6277 82.3831C61.1986 81.9533 60.9846 81.445 60.9846 80.8567V76.5138C60.9846 75.9267 61.1986 75.4173 61.6277 74.9874C62.0569 74.5588 62.5645 74.3415 63.1532 74.3415H67.4888C68.0761 74.3415 68.5835 74.5586 69.0128 74.9874C69.4419 75.4185 69.6572 75.9267 69.6572 76.5138V80.8567C69.6572 81.445 69.4419 81.9549 69.0128 82.3831ZM69.6572 93.8856V98.2285C69.6572 98.818 69.4419 99.3277 69.0128 99.7553C68.5835 100.186 68.0761 100.4 67.4888 100.4H63.1532C62.5659 100.4 62.0569 100.186 61.6277 99.7553C61.1986 99.3267 60.9846 98.8178 60.9846 98.2285V93.8856C60.9846 93.2985 61.1986 92.789 61.6277 92.3592C62.0569 91.9305 62.5645 91.7149 63.1532 91.7149H67.4888C68.0761 91.7149 68.5835 91.9305 69.0128 92.3592C69.4419 92.7903 69.6572 93.2987 69.6572 93.8856ZM69.0128 65.0101C68.5835 65.4412 68.0761 65.6556 67.4888 65.6556H63.1532C62.5659 65.6556 62.0569 65.4412 61.6277 65.0101C61.1986 64.5815 60.9846 64.073 60.9846 63.4837V59.142C60.9846 58.5537 61.1986 58.0438 61.6277 57.6152C62.0569 57.1854 62.5645 56.9699 63.1532 56.9699H67.4888C68.0761 56.9699 68.5835 57.1856 69.0128 57.6152C69.4419 58.0451 69.6572 58.5537 69.6572 59.142V63.4837C69.6572 64.073 69.4419 64.5825 69.0128 65.0101ZM69.0128 47.6381C68.5835 48.0694 68.0761 48.2836 67.4888 48.2836H63.1532C62.5659 48.2836 62.0569 48.0692 61.6277 47.6381C61.1986 47.2095 60.9846 46.701 60.9846 46.1115V41.7686C60.9846 41.1817 61.1986 40.6719 61.6277 40.242C62.0569 39.8134 62.5645 39.5977 63.1532 39.5977H67.4888C68.0761 39.5977 68.5835 39.8134 69.0128 40.242C69.4419 40.6733 69.6572 41.1817 69.6572 41.7686V46.1115C69.6572 46.701 69.4419 47.2107 69.0128 47.6381ZM69.0128 30.2661C68.5835 30.6974 68.0761 30.9104 67.4888 30.9104H63.1532C62.5659 30.9104 62.0569 30.6974 61.6277 30.2661C61.1986 29.8375 60.9846 29.329 60.9846 28.7396V24.3964C60.9846 23.8095 61.1986 23.2999 61.6277 22.8698C62.0569 22.4412 62.5645 22.2255 63.1532 22.2255H67.4888C68.0761 22.2255 68.5835 22.4412 69.0128 22.8698C69.4419 23.3009 69.6572 23.8093 69.6572 24.3964V28.7396C69.6572 29.329 69.4419 29.8387 69.0128 30.2661ZM43.6419 41.7686C43.6419 41.1817 43.8559 40.6719 44.285 40.242C44.7142 39.8134 45.2218 39.5977 45.8091 39.5977H50.1447C50.7307 39.5977 51.2383 39.8134 51.6687 40.242C52.0978 40.6733 52.3119 41.1817 52.3119 41.7686V46.1115C52.3119 46.701 52.0978 47.2107 51.6687 47.6381C51.2383 48.0694 50.7307 48.2836 50.1447 48.2836H45.8091C45.2218 48.2836 44.7142 48.0692 44.285 47.6381C43.8559 47.2095 43.6419 46.701 43.6419 46.1115V41.7686ZM43.6419 59.1418C43.6419 58.5535 43.8559 58.0436 44.285 57.615C44.7142 57.1852 45.2218 56.9697 45.8091 56.9697H50.1447C50.7307 56.9697 51.2383 57.1854 51.6687 57.615C52.0978 58.0449 52.3119 58.5535 52.3119 59.1418V63.4835C52.3119 64.073 52.0978 64.5823 51.6687 65.0099C51.2383 65.441 50.7307 65.6554 50.1447 65.6554H45.8091C45.2218 65.6554 44.7142 65.441 44.285 65.0099C43.8559 64.5813 43.6419 64.0728 43.6419 63.4835V59.1418ZM16.9847 82.3831C16.5544 82.8134 16.0468 83.0274 15.4595 83.0274H11.1239C10.5366 83.0274 10.0278 82.8134 9.59985 82.3831C9.16929 81.9533 8.95544 81.445 8.95544 80.8567V76.5138C8.95544 75.9267 9.1695 75.4173 9.59985 74.9874C10.0278 74.5588 10.5366 74.3415 11.1239 74.3415H15.4595C16.0468 74.3415 16.5544 74.5586 16.9847 74.9874C17.4126 75.4185 17.6279 75.9267 17.6279 76.5138V80.8567C17.6279 81.445 17.4126 81.9549 16.9847 82.3831ZM17.6279 93.8856V98.2285C17.6279 98.818 17.4126 99.3277 16.9847 99.7553C16.5544 100.186 16.0468 100.4 15.4595 100.4H11.1239C10.5366 100.4 10.0278 100.186 9.59985 99.7553C9.16929 99.3267 8.95544 98.8178 8.95544 98.2285V93.8856C8.95544 93.2985 9.1695 92.789 9.59985 92.3592C10.0278 91.9305 10.5366 91.7149 11.1239 91.7149H15.4595C16.0468 91.7149 16.5544 91.9305 16.9847 92.3592C17.4126 92.7903 17.6279 93.2987 17.6279 93.8856ZM16.9847 65.0101C16.5544 65.4412 16.0468 65.6556 15.4595 65.6556H11.1239C10.5366 65.6556 10.0278 65.4412 9.59985 65.0101C9.16929 64.5815 8.95544 64.073 8.95544 63.4837V59.142C8.95544 58.5537 9.1695 58.0438 9.59985 57.6152C10.0278 57.1854 10.5366 56.9699 11.1239 56.9699H15.4595C16.0468 56.9699 16.5544 57.1856 16.9847 57.6152C17.4126 58.0451 17.6279 58.5537 17.6279 59.142V63.4837C17.6279 64.073 17.4126 64.5825 16.9847 65.0101ZM16.9847 47.6381C16.5544 48.0694 16.0468 48.2836 15.4595 48.2836H11.1239C10.5366 48.2836 10.0278 48.0692 9.59985 47.6381C9.16929 47.2095 8.95544 46.701 8.95544 46.1115V41.7686C8.95544 41.1817 9.1695 40.6719 9.59985 40.242C10.0278 39.8134 10.5366 39.5977 11.1239 39.5977H15.4595C16.0468 39.5977 16.5544 39.8134 16.9847 40.242C17.4126 40.6733 17.6279 41.1817 17.6279 41.7686V46.1115C17.6279 46.701 17.4126 47.2107 16.9847 47.6381ZM16.9847 30.2661C16.5544 30.6974 16.0468 30.9104 15.4595 30.9104H11.1239C10.5366 30.9104 10.0278 30.6974 9.59985 30.2661C9.16929 29.8375 8.95544 29.329 8.95544 28.7396V24.3964C8.95544 23.8095 9.1695 23.2999 9.59985 22.8698C10.0278 22.4412 10.5366 22.2255 11.1239 22.2255H15.4595C16.0468 22.2255 16.5544 22.4412 16.9847 22.8698C17.4126 23.3009 17.6279 23.8093 17.6279 24.3964V28.7396C17.6279 29.329 17.4126 29.8387 16.9847 30.2661ZM34.9706 80.8567C34.9706 81.445 34.7553 81.9549 34.3274 82.3831C33.8969 82.813 33.3893 83.0274 32.8022 83.0274H28.4664C27.8791 83.0274 27.3717 82.813 26.9423 82.3831C26.513 81.9533 26.2992 81.445 26.2992 80.8567V76.5138C26.2992 75.9267 26.513 75.4173 26.9423 74.987C27.3715 74.5586 27.8791 74.3415 28.4664 74.3415H32.8022C33.388 74.3415 33.8969 74.5586 34.3274 74.987C34.7553 75.4185 34.9706 75.9267 34.9706 76.5138V80.8567ZM34.9706 63.4837C34.9706 64.0732 34.7553 64.5825 34.3274 65.0101C33.8969 65.4412 33.3893 65.6556 32.8022 65.6556H28.4664C27.8791 65.6556 27.3717 65.4412 26.9423 65.0101C26.513 64.5815 26.2992 64.073 26.2992 63.4837V59.142C26.2992 58.5537 26.513 58.0438 26.9423 57.6152C27.3715 57.1854 27.8791 56.9699 28.4664 56.9699H32.8022C33.388 56.9699 33.8969 57.1856 34.3274 57.6152C34.7553 58.0451 34.9706 58.5537 34.9706 59.142V63.4837ZM34.9706 46.1115C34.9706 46.701 34.7553 47.2107 34.3274 47.6381C33.8969 48.0694 33.3893 48.2836 32.8022 48.2836H28.4664C27.8791 48.2836 27.3717 48.0692 26.9423 47.6381C26.513 47.2095 26.2992 46.701 26.2992 46.1115V41.7686C26.2992 41.1817 26.513 40.6719 26.9423 40.242C27.3715 39.8134 27.8791 39.5977 28.4664 39.5977H32.8022C33.388 39.5977 33.8969 39.8134 34.3274 40.242C34.7553 40.6733 34.9706 41.1817 34.9706 41.7686V46.1115ZM50.1459 83.0274H45.8103C45.223 83.0274 44.7154 82.8134 44.2863 82.3831C43.8571 81.9533 43.6431 81.445 43.6431 80.8567V76.5138C43.6431 75.9267 43.8571 75.4173 44.2863 74.9874C44.7154 74.5588 45.223 74.3415 45.8103 74.3415H50.1459C50.732 74.3415 51.2396 74.5586 51.6699 74.9874C52.099 75.4185 52.3131 75.9267 52.3131 76.5138V80.8567C52.3131 81.445 52.099 81.9549 51.6699 82.3831C51.2396 82.813 50.732 83.0274 50.1459 83.0274Z"/>
<path d="M26.3041 28.8007C27.3293 29.6743 28.5224 30.1367 29.9045 30.1367H48.7088C50.0897 30.1367 51.2828 29.6743 52.3091 28.8007C52.4374 28.6922 52.5718 28.6014 52.6948 28.4792C53.7984 27.3739 54.3507 26.043 54.3507 24.4865V5.65145C54.3507 4.09493 53.7996 2.76403 52.6948 1.65874C51.5916 0.553253 50.2627 0 48.709 0H29.9045C28.3506 0 27.0219 0.553253 25.9185 1.65874C24.8151 2.76403 24.2626 4.09493 24.2626 5.65145V24.4863C24.2626 26.0428 24.8137 27.3737 25.9185 28.479C26.0415 28.6014 26.1771 28.6912 26.3041 28.8007ZM29.2774 14.7837V6.27841C29.2774 5.93938 29.4018 5.64412 29.6494 5.3961C29.897 5.14808 30.1917 5.02347 30.5302 5.02347H33.0371C33.3768 5.02347 33.6703 5.14808 33.9179 5.3961C34.1655 5.64534 34.2899 5.93938 34.2899 6.27841V12.5568H44.3185V6.27841C44.3185 5.93938 44.4429 5.64412 44.6905 5.3961C44.9381 5.14808 45.2329 5.02347 45.5713 5.02347H48.0782C48.4179 5.02347 48.7114 5.14808 48.959 5.3961C49.2066 5.64534 49.3308 5.93938 49.3308 6.27841V23.8585C49.3308 24.1988 49.2066 24.4928 48.959 24.7408C48.71 24.9901 48.4165 25.1135 48.0782 25.1135H45.5713C45.2316 25.1135 44.9381 24.9901 44.6905 24.7408C44.4417 24.4928 44.3185 24.1988 44.3185 23.8585V17.5801H34.2924V23.8585C34.2924 24.1988 34.1679 24.4928 33.9203 24.7408C33.6715 24.9901 33.378 25.1135 33.0395 25.1135H30.5326C30.1929 25.1135 29.8994 24.9901 29.6518 24.7408C29.403 24.4928 29.2798 24.1988 29.2798 23.8585V14.7837H29.2774Z"/>
</svg>
