<svg viewBox="0 0 25 25" fill="currentColor" stroke="currentColor" xmlns="http://www.w3.org/2000/svg">
<path fill-rule="evenodd" clip-rule="evenodd" d="M0 12.5C0 5.59644 5.59644 0 12.5 0C19.4035 0 25 5.59644 25 12.5C25 19.4035 19.4035 25 12.5 25C5.59644 25 0 19.4035 0 12.5ZM10.5114 11.3636C10.5114 10.736 11.0201 10.2273 11.6477 10.2273H13.3523C13.9799 10.2273 14.4886 10.736 14.4886 11.3636V19.3182C14.4886 19.9458 13.9799 20.4545 13.3523 20.4545H11.6477C11.0201 20.4545 10.5114 19.9458 10.5114 19.3182V11.3636ZM14.7727 6.81818C14.7727 5.56299 13.7552 4.54545 12.5 4.54545C11.2448 4.54545 10.2273 5.56299 10.2273 6.81818C10.2273 8.07337 11.2448 9.09091 12.5 9.09091C13.7552 9.09091 14.7727 8.07337 14.7727 6.81818Z"/>
</svg>