<svg viewBox="0 0 200 199" fill="currentColor" stroke="currentColor"  xmlns="http://www.w3.org/2000/svg">
<path d="M186.667 92.2971V25.9277L153.193 59.4009L186.667 92.2971Z"/>
<path d="M40.0013 0.00195312H3.33513C1.4953 0.00195312 0.00195312 1.49179 0.00195312 3.33513V40.0016H40.0016L40.0013 0.00195312Z"/>
<path d="M73.334 0.00195312V87.4114L160.74 0.00195312H73.334Z"/>
<path d="M0 73.335V160.741L39.9997 120.744V73.335H0Z"/>
<path d="M126.982 77.5662H126.999C127.886 77.5697 128.739 77.9295 129.362 78.5662L144.149 93.636C146.072 93.4395 148.025 93.3325 149.999 93.3325C163.982 93.3325 176.772 98.4492 186.665 106.872V101.649L146.125 61.8194C145.486 61.1995 145.119 60.346 145.112 59.4527C145.106 58.5628 145.459 57.7062 146.089 57.0761L186.665 16.4999V3.33318C186.665 1.49335 185.175 0 183.332 0H170.169L72.3561 97.8125C71.7194 98.4524 70.8694 98.7891 69.9995 98.7891C69.5694 98.7891 69.1362 98.709 68.7229 98.5359C67.4796 98.0227 66.6663 96.8028 66.6663 95.4559V0H46.6664V43.3329C46.6664 45.1762 45.1766 46.666 43.3333 46.666H0V66.6659H43.3329C45.1762 66.6659 46.666 68.1592 46.666 69.9991V122.122C46.666 123.009 46.316 123.855 45.6895 124.479L0 170.169V183.332C0 185.175 1.49335 186.665 3.33318 186.665H16.4999L124.626 78.5424C125.249 77.9162 126.099 77.5662 126.982 77.5662Z"/>
<path d="M136.24 95.0948L126.96 85.6348L25.9277 186.668H106.874C98.4506 176.774 93.3342 163.985 93.3342 150.001C93.3338 123.508 111.634 101.268 136.24 95.0948Z"/>
<path d="M135.6 141.75H135.654L135.656 141.646L135.6 141.75Z"/>
<path d="M159.973 156.513C160.504 155.873 160.676 154.898 160.467 153.693L159.232 146.538L164.361 141.452C165.396 140.426 165.799 139.342 165.492 138.4C165.188 137.459 164.229 136.826 162.793 136.619L155.684 135.596L152.486 129.091C151.842 127.782 150.949 127.061 149.971 127.061C148.988 127.061 148.096 127.787 147.457 129.106L144.297 135.629L137.193 136.695C135.766 136.909 134.811 137.544 134.508 138.482C134.227 139.353 134.551 140.343 135.422 141.296C135.439 141.32 135.459 141.344 135.48 141.364L135.646 141.527C135.646 141.527 135.658 141.536 135.662 141.547L140.811 146.592L139.617 153.755C139.416 154.959 139.592 155.93 140.123 156.566C140.52 157.04 141.086 157.291 141.764 157.291C142.352 157.291 143.002 157.104 143.693 156.732L150.041 153.334L156.408 156.695C157.898 157.482 159.236 157.399 159.973 156.513Z"/>
<path fill-rule="evenodd" clip-rule="evenodd" d="M150 199C177.613 199 200 176.614 200 149C200 121.386 177.613 99 150 99C122.387 99 100 121.386 100 149C100 176.614 122.387 199 150 199ZM128 142.252C128 129.982 137.869 120 150 120C162.131 120 172 129.982 172 142.252C172 164.558 150.447 177.805 150.229 177.936C150.182 177.964 150.131 177.983 150.078 177.993C150.053 177.998 150.027 178 150 178C149.92 178 149.842 177.979 149.771 177.936C149.553 177.805 128 164.558 128 142.252Z"/>
</svg>
