<svg viewBox="0 0 170 200" fill="currentColor" stroke="currentColor" xmlns="http://www.w3.org/2000/svg">
<path d="M107.328 33.3194C108.461 30.5152 109.091 27.4527 109.091 24.2424C109.091 10.8533 98.237 0 84.8485 0C71.46 0 60.6061 10.8533 60.6061 24.2424C60.6061 27.4527 61.2358 30.5152 62.3691 33.3194C26.4194 43.1721 0 76.0733 0 115.152C0 162.012 37.9879 200 84.8485 200C131.709 200 169.697 162.012 169.697 115.152C169.697 76.0733 143.278 43.1721 107.328 33.3194ZM84.8485 18.1818C88.1952 18.1818 90.9091 20.8952 90.9091 24.2424C90.9091 27.5897 88.1952 30.303 84.8485 30.303C81.5012 30.303 78.7879 27.5897 78.7879 24.2424C78.7879 20.8952 81.5012 18.1818 84.8485 18.1818ZM84.8485 181.818C48.0291 181.818 18.1818 151.971 18.1818 115.152C18.1818 78.3321 48.0291 48.4848 84.8485 48.4848C121.668 48.4848 151.515 78.3321 151.515 115.152C151.515 151.971 121.667 181.818 84.8485 181.818Z"/>
<path d="M84.8484 60.606C54.7236 60.606 30.303 85.0266 30.303 115.151C30.303 145.276 54.7236 169.697 84.8484 169.697C114.973 169.697 139.394 145.276 139.394 115.151C139.394 85.0266 114.973 60.606 84.8484 60.606ZM94.8303 125.134L84.8484 157.576L74.866 125.134L42.4242 115.151L74.866 105.169L84.8484 72.7272L94.8303 105.169L127.273 115.151L94.8303 125.134Z"/>
</svg>
