<svg viewBox="0 0 100 100" fill="currentColor" stroke="currentColor" xmlns="http://www.w3.org/2000/svg">
<path fill-rule="evenodd" clip-rule="evenodd" d="M13.5359 86.0616C13.544 82.7819 15.4077 79.5755 18.4432 75.9865L0.889119 64.886C-0.217675 64.4059 -0.193261 63.7304 0.449657 62.9329L4.16881 59.759C4.84428 59.3439 5.56044 59.1649 6.33357 59.3765L27.9974 63.0387L46.0479 43.4907L3.90839 14.9826C2.84229 14.356 2.75276 13.648 3.85142 12.826L9.93065 7.97565L64.8634 23.4138L81.091 6.06318C86.5355 1.35116 91.8253 -0.756628 95.8862 0.244369C98.1242 0.797766 98.9136 1.4651 99.6054 3.56475C100.948 7.68268 98.8648 13.2166 93.9412 18.9134L76.5906 35.1409L92.0287 90.0737L87.1784 96.153C86.3564 97.2435 85.6484 97.154 85.0218 96.096L56.5055 53.9646L36.9576 72.007L40.6198 93.6708C40.8314 94.4358 40.6605 95.152 40.2373 95.8356L37.0634 99.5547C36.274 100.198 35.5904 100.222 35.1102 99.1153L24.0097 81.5612C20.4045 84.6049 17.1981 86.4685 13.9021 86.4685C13.601 86.4604 13.5359 86.3546 13.5359 86.0616Z"/>
</svg>
