<svg viewBox="0 0 200 154" fill="currentColor" stroke="currentColor" xmlns="http://www.w3.org/2000/svg">
<path d="M199.031 53.9427C198.016 52.0731 196.333 50.7097 194.293 50.1052L29.0104 1.10865C28.2727 0.890209 27.5103 0.778809 26.7456 0.778809C23.2447 0.778809 20.1051 3.12452 19.1097 6.48253L0.329008 69.8348C-0.858623 73.8413 1.26865 78.0504 5.1052 79.5267V145.255C5.1052 149.647 8.67875 153.221 13.0713 153.221H185.464C189.856 153.221 193.43 149.647 193.43 145.255V81.048L199.667 60.0078C200.273 57.9667 200.047 55.8128 199.031 53.9427ZM187.618 145.255C187.618 146.442 186.652 147.409 185.464 147.409H141.096V143.942C141.096 142.337 139.795 141.035 138.19 141.035C136.584 141.035 135.283 142.337 135.283 143.942V147.409H13.0713C11.8837 147.409 10.9174 146.442 10.9174 145.255V81.2829L37.7873 89.2481L35.9066 91.1288L22.7666 89.6893L20.0455 91.8926L30.5017 96.5332L26.8487 100.187L22.9526 99.8055C22.8862 99.7992 22.8218 99.8244 22.7753 99.8728L21.4114 101.237C21.3232 101.319 21.3165 101.457 21.3983 101.547C21.4187 101.57 21.4434 101.587 21.4705 101.599L24.8609 103.142C24.8721 103.696 25.0881 104.247 25.5105 104.67C25.9338 105.092 26.4845 105.309 27.0386 105.32L28.5856 108.706C28.6355 108.817 28.7653 108.866 28.8753 108.817C28.899 108.806 28.9213 108.792 28.9397 108.773L30.3036 107.401C30.3516 107.355 30.3758 107.29 30.3709 107.224L29.9893 103.336L33.6456 99.6791L38.2867 110.136L40.49 107.414L39.051 94.2742L42.6376 90.6871L48.6756 92.4768V94.0655C48.6756 94.6007 49.1095 95.0342 49.6443 95.0342H57.3023L79.3282 101.563H49.6443C49.1095 101.563 48.6756 101.997 48.6756 102.532V108.7C48.6756 109.235 49.1095 109.669 49.6443 109.669H106.672L135.374 118.177C135.317 118.404 135.283 118.641 135.283 118.886V131.414C135.283 133.018 136.584 134.32 138.189 134.32C139.794 134.32 141.095 133.018 141.095 131.414V119.873L170.986 128.733C171.724 128.952 172.487 129.063 173.251 129.063C176.752 129.063 179.891 126.718 180.888 123.361L187.618 100.656V145.255ZM194.095 58.3552L175.316 121.708C175.046 122.617 174.197 123.251 173.252 123.251C173.046 123.251 172.84 123.221 172.638 123.161L130.099 110.551L131.085 107.227C131.54 105.688 130.663 104.071 129.124 103.615C127.586 103.16 125.968 104.036 125.512 105.575L124.526 108.899L7.35502 74.1649C6.2163 73.8273 5.56388 72.6261 5.90196 71.4874L24.6817 8.13466C24.951 7.22601 25.7996 6.59103 26.7451 6.59103C26.9509 6.59103 27.1577 6.62154 27.3587 6.68112L144.53 41.4159L143.314 45.5198C142.858 47.0591 143.735 48.6764 145.274 49.1321C145.55 49.214 145.828 49.2527 146.101 49.2527C147.355 49.2527 148.512 48.4352 148.886 47.172L150.103 43.068L192.641 55.6782C193.194 55.8414 193.649 56.2104 193.923 56.7161C194.198 57.2208 194.259 57.8035 194.095 58.3552Z"/>
<path d="M136.245 79.5931C134.71 79.1363 133.089 80.0135 132.633 81.5532L129.073 93.5642C128.617 95.103 129.494 96.7207 131.033 97.1765C131.308 97.2583 131.587 97.2971 131.861 97.2971C133.114 97.2971 134.271 96.4795 134.646 95.2158L138.206 83.2049C138.661 81.6661 137.783 80.0488 136.245 79.5931Z"/>
<path d="M143.366 55.5707C141.831 55.1149 140.21 55.9916 139.754 57.5314L136.193 69.5423C135.737 71.0811 136.615 72.6984 138.154 73.1541C138.429 73.236 138.707 73.2747 138.981 73.2747C140.235 73.2747 141.392 72.4571 141.766 71.194L145.327 59.183C145.782 57.6442 144.905 56.027 143.366 55.5707Z"/>
<path d="M28.4268 32.6311L31.239 35.0736C31.0917 35.6084 31.1426 36.1973 31.4279 36.7229C31.7132 37.2484 32.1796 37.6131 32.708 37.7807L33.2292 41.4661C33.2457 41.5867 33.3556 41.6715 33.4752 41.655C33.5009 41.6511 33.5261 41.6439 33.5493 41.6318L35.247 40.7033C35.3061 40.6727 35.3477 40.618 35.3618 40.5526L36.1009 36.7161L40.6461 34.2502L42.1238 45.5942L45.0096 43.6108L47.3645 30.6036L52.3562 27.8946C53.4354 27.3095 53.8355 25.9591 53.2499 24.88C52.6643 23.8008 51.3139 23.4003 50.2348 23.9859L45.2431 26.6953L33.0539 21.5806L29.8189 22.9198L38.5251 30.341L33.9848 32.8059L30.3575 31.3325C30.2955 31.3078 30.2267 31.3136 30.1686 31.3466L28.4733 32.2659C28.3653 32.3196 28.3198 32.4504 28.3726 32.5599C28.3852 32.5875 28.4041 32.6117 28.4268 32.6311Z"/>
<path d="M118.794 89.911L18.6039 60.2101C18.0929 60.0595 17.5518 60.3506 17.3998 60.864L15.6464 66.7779C15.5733 67.024 15.6014 67.2894 15.7239 67.5156C15.8464 67.7413 16.0537 67.9094 16.3003 67.982L116.491 97.6825C116.581 97.7096 116.674 97.7227 116.766 97.7227C116.926 97.7227 117.085 97.6829 117.229 97.6054C117.454 97.4829 117.622 97.2756 117.695 97.0296L119.448 91.1156C119.6 90.6017 119.307 90.0631 118.794 89.911Z"/>
<path d="M122.954 75.8793L22.7633 46.1784C22.5172 46.1058 22.2518 46.1334 22.0261 46.2559C21.8004 46.3785 21.6323 46.5858 21.5597 46.8318L19.8063 52.7467C19.6542 53.2596 19.9468 53.7987 20.4597 53.9503L120.651 83.6503C120.741 83.6774 120.834 83.6905 120.926 83.6905C121.086 83.6905 121.245 83.6508 121.388 83.5733C121.614 83.4507 121.782 83.2434 121.855 82.9974L123.608 77.0835C123.76 76.5705 123.467 76.0314 122.954 75.8793Z"/>
<path d="M127.113 61.8477L55.4496 40.604C54.9371 40.4524 54.3975 40.744 54.2455 41.2579L52.4921 47.1719C52.419 47.4179 52.4471 47.6833 52.5696 47.909C52.6921 48.1347 52.8994 48.3028 53.146 48.3755L124.811 69.6196C124.901 69.6467 124.994 69.6598 125.086 69.6598C125.246 69.6598 125.404 69.6201 125.548 69.5426C125.774 69.4201 125.942 69.2123 126.015 68.9662L127.767 63.0518C127.918 62.5389 127.626 62.0003 127.113 61.8477Z"/>
<path d="M129.244 55.6276C129.662 55.6276 130.048 55.3549 130.173 54.934L131.926 49.02C131.999 48.7735 131.972 48.5081 131.849 48.2824C131.727 48.0567 131.519 47.8886 131.273 47.8154L59.6087 26.5718C59.0968 26.4202 58.5572 26.7122 58.4046 27.2257L56.6513 33.1396C56.5781 33.3856 56.6062 33.6511 56.7288 33.8768C56.8513 34.1025 57.0586 34.2705 57.3047 34.3432L128.969 55.5869C129.061 55.615 129.153 55.6276 129.244 55.6276Z"/>
<path d="M124.391 130.833H19.8916C19.3563 130.833 18.9229 131.267 18.9229 131.802V137.97C18.9229 138.505 19.3563 138.939 19.8916 138.939H124.391C124.926 138.939 125.36 138.505 125.36 137.97V131.802C125.36 131.267 124.926 130.833 124.391 130.833Z"/>
<path d="M124.391 116.198L19.8916 116.197C19.6348 116.197 19.3883 116.299 19.2067 116.481C19.025 116.663 18.9229 116.909 18.9229 117.166V123.335C18.9229 123.869 19.3563 124.303 19.8916 124.303H124.391C124.926 124.303 125.36 123.869 125.36 123.335V117.166C125.36 116.632 124.926 116.198 124.391 116.198Z"/>
</svg>
