<svg viewBox="0 0 100 101" fill="currentColor" stroke="currentColor" xmlns="http://www.w3.org/2000/svg">
<path d="M24.4523 2.78134C24.4523 1.43559 23.4117 0.400391 22.0591 0.400391C20.7064 0.400391 19.6659 1.43559 19.6659 2.78134V8.06085H24.5563V2.78134H24.4523ZM22.0591 34.1478C28.6143 34.1478 34.0251 28.8683 34.0251 22.243C34.0251 15.7213 28.7184 10.3383 22.0591 10.3383C15.5038 10.3383 10.0931 15.6178 10.0931 22.243C10.0931 28.8683 15.3997 34.1478 22.0591 34.1478ZM38.3953 10.7524C39.3317 9.82068 39.3317 8.26789 38.3953 7.33621C37.4588 6.40453 35.898 6.40453 34.9615 7.33621L31.2157 11.1664L34.6494 14.5826L38.3953 10.7524ZM31.2157 33.4232L34.9615 37.1499C35.898 38.0815 37.4588 38.0815 38.3953 37.1499C39.3317 36.2182 39.3317 34.6654 38.3953 33.7337L34.6494 30.007L31.2157 33.4232ZM36.2102 24.7275H41.5168C42.8695 24.7275 43.91 23.6923 43.91 22.3466C43.91 21.0008 42.8695 19.9656 41.5168 19.9656H36.2102V24.7275ZM9.3647 14.5826L12.7984 11.1664L9.05254 7.43973C8.11607 6.50805 6.55529 6.50805 5.61882 7.43973C4.68235 8.37141 4.68235 9.9242 5.61882 10.8559L9.3647 14.5826ZM19.5618 41.8083C19.5618 43.154 20.6023 44.1892 21.955 44.1892C23.3077 44.1892 24.3482 43.154 24.3482 41.8083V36.5288H19.4578V41.8083H19.5618ZM2.3932 24.7275H7.69986V19.8621H2.3932C1.04052 19.8621 0 20.8973 0 22.243C0 23.5888 1.04052 24.7275 2.3932 24.7275ZM5.61882 33.7337C4.68235 34.6654 4.68235 36.2182 5.61882 37.1499C6.55529 38.0815 8.11607 38.0815 9.05254 37.1499L12.7984 33.4232L9.3647 30.007L5.61882 33.7337ZM85.739 96.2596C74.9176 96.2596 71.5879 90.0484 62.4313 90.0484C61.3908 90.0484 60.2462 90.1519 59.1016 90.2555L71.0676 59.9242C72.7325 59.7172 74.7095 60.0277 76.7905 60.8559C79.808 61.9946 81.9931 63.8579 82.7215 65.6178C82.9296 66.2389 83.6579 66.4459 84.2823 66.2389C86.0511 65.4107 88.9646 65.5143 91.8781 66.653C94.0632 67.4811 95.9361 68.7234 96.9766 70.0691C97.6009 70.7938 98.8496 70.5867 99.0577 69.655C102.908 54.2306 94.6875 37.978 79.3918 32.0774C63.888 26.0733 46.8235 32.6985 39.3317 46.7772C38.9155 47.6054 39.6439 48.6406 40.5803 48.537C42.2452 48.2265 44.4303 48.537 46.6154 49.3652C49.5288 50.5039 51.7139 52.3673 52.4423 54.1271C52.6504 54.7482 53.3788 54.9553 54.0031 54.7482C55.772 53.9201 58.6854 54.0236 61.5989 55.1623C63.6799 55.9904 65.4488 57.1292 66.4893 58.3714L53.4828 91.1871C51.4018 91.6012 49.3207 92.1188 46.9275 92.6364V84.6654C46.9275 83.5267 46.5113 82.4915 45.6789 81.7669L49.3207 78.1437C50.1531 77.3155 50.1531 76.0733 49.3207 75.2451C48.4883 74.417 47.2397 74.417 46.4073 75.2451L35.1696 86.6323H17.3767C14.4633 86.6323 12.0701 89.0132 12.0701 91.9118V95.949C4.47424 96.8807 0 98.537 0 100.4H99.8901C99.8901 100.4 96.5604 96.2596 85.739 96.2596ZM65.5529 50.5039C65.3448 50.918 65.0326 51.125 64.6164 51.125C64.5123 51.125 64.4083 51.125 64.2002 51.0215C63.6799 50.8145 63.3678 50.1933 63.5759 49.6758C63.6799 49.2617 66.6974 41.4977 74.5014 37.8745C61.3908 36.1147 53.3788 45.1209 53.0666 45.535C52.8585 45.742 52.5463 45.8455 52.2342 45.8455C52.0261 45.8455 51.7139 45.742 51.5058 45.6385C51.0896 45.2244 50.9856 44.6033 51.4018 44.1892C51.5058 44.0857 62.0151 32.1809 78.5594 36.6323C78.5594 36.6323 78.6634 36.6323 78.6634 36.7358H78.7675C93.647 45.742 91.67 61.5805 91.67 61.684C91.5659 62.2016 91.1497 62.6157 90.6294 62.6157H90.5254C90.0051 62.5122 89.5889 61.9946 89.5889 61.477C89.693 60.9594 91.0456 49.0546 80.8485 40.6695C83.4498 48.8476 79.4959 56.4045 79.2878 56.8186C79.0796 57.1292 78.7675 57.3362 78.3513 57.3362C78.1432 57.3362 78.0391 57.3362 77.831 57.2327C77.3108 56.9221 77.1027 56.301 77.4148 55.7834C77.4148 55.6799 81.9931 46.9842 77.831 38.8062C68.9866 41.4977 65.5529 50.4004 65.5529 50.5039ZM42.8695 93.5681C38.1871 94.4998 32.9845 95.2244 26.9495 95.2244C22.9955 95.2244 19.4578 95.3279 16.2321 95.6385V92.0153C16.2321 91.3942 16.7524 90.8766 17.3767 90.8766H36.8345L37.4588 90.2555L42.8695 84.8724V93.5681Z"/>
</svg>
