<svg viewBox="0 0 100 100" fill="currentColor" stroke="currentColor" xmlns="http://www.w3.org/2000/svg">
<path d="M99.8752 37.8744C99.5284 36.7704 98.5539 35.9834 97.4026 35.9834H63.0787L52.4708 1.69059C52.0408 0.684981 51.0975 0 49.9983 0C48.899 0 47.9557 0.688625 47.5327 1.67238L47.5257 1.69059L36.9178 35.9834H2.59736C1.1617 35.9834 0 37.2076 0 38.716C0 39.6196 0.4196 40.4248 1.0646 40.9204L1.07154 40.924L28.838 62.122L18.2301 96.4148C18.1503 96.6698 18.1017 96.9613 18.1017 97.2637C18.1017 98.7721 19.2669 99.9964 20.7026 99.9964C21.2748 99.9964 21.8053 99.7996 22.2353 99.4717L22.2284 99.4753L49.9983 78.2773L77.7612 99.4753C78.1843 99.8033 78.7148 100 79.2905 100C80.7261 100 81.8913 98.7758 81.8913 97.2674C81.8913 96.9649 81.8428 96.6698 81.7561 96.3966L81.763 96.4148L71.1551 62.122L98.9319 40.924C99.5839 40.4212 100 39.6233 100 38.7197C100 38.4173 99.9514 38.1258 99.8682 37.8525L99.8752 37.8707V37.8744ZM66.5707 58.8683C65.9188 59.3711 65.4992 60.1727 65.4992 61.0799C65.4992 61.3824 65.5477 61.6738 65.6344 61.9471L65.6275 61.9289L74.3455 90.1151L51.5241 72.6882C51.101 72.3639 50.5704 72.1672 49.9983 72.1672C49.4261 72.1672 48.8955 72.3603 48.462 72.6918L48.469 72.6845L25.6476 90.1115L34.3656 61.9252C34.4488 61.6702 34.4939 61.3787 34.4939 61.0763C34.4939 60.1691 34.0743 59.3675 33.4293 58.872L33.4223 58.8683L10.6044 41.4523H38.8112C39.9591 41.4523 40.937 40.669 41.2768 39.5832L41.2838 39.565L50.0017 11.3824L58.7197 39.565C59.0665 40.669 60.0409 41.456 61.1922 41.456H89.4025L66.5707 58.8683Z"/>
</svg>
